<svg width="1920" height="4726" viewBox="0 0 1920 4726" fill="none" xmlns="http://www.w3.org/2000/svg">
<g clip-path="url(#clip0_6475_390)">
<rect width="1920" height="4726" fill="white"/>
<path fill-rule="evenodd" clip-rule="evenodd" d="M1494.92 -54.1028C1637.2 -77.9796 1769 -238.693 1900.73 -172.494C2031.48 -106.79 2014 99.0739 2076.59 238.193C2137.4 373.347 2264.52 481.342 2261.8 630.035C2258.95 785.615 2172.04 928.47 2062.14 1028.41C1956.49 1124.48 1814.52 1156.37 1674.73 1163.9C1544.62 1170.91 1402.92 1159.41 1301.73 1069.37C1207.07 985.148 1231.21 825.741 1167.95 712.982C1096.07 584.88 926.967 519.851 910.74 372.498C893.802 218.686 967.166 50.724 1085.5 -35.6909C1200.12 -119.396 1356.9 -30.942 1494.92 -54.1028Z" fill="#D9F4FF"/>
</g>
<defs>
<clipPath id="clip0_6475_390">
<rect width="1920" height="4726" fill="white"/>
</clipPath>
</defs>
</svg>
