<svg width="1778" height="920" viewBox="0 0 1778 920" fill="none" xmlns="http://www.w3.org/2000/svg">
<g clip-path="url(#clip0_6473_242)">
<path fill-rule="evenodd" clip-rule="evenodd" d="M17.4908 176.886C33.3799 146.15 59.2023 130.828 96.0407 134.328C111.557 135.783 123.974 140.14 133.47 147.245C135.373 148.669 135.766 151.373 134.346 153.283C132.926 155.193 130.232 155.586 128.328 154.162C120.179 148.064 109.264 144.234 95.2353 142.919C62.0063 139.761 39.4517 153.144 25.1245 180.859C13.5294 203.289 7.80661 233.856 6.26114 272.004L6.20154 273.534C5.77496 284.94 5.75016 293.989 5.98384 308.523L6.16318 319.476C6.36508 333.902 6.21278 339.968 5.39096 347.402L5.3471 347.793C4.05569 359.226 1.13019 368.655 -4.25937 377.787C-8.42318 384.841 -14.0976 391.748 -21.6847 398.968L-22.5355 399.77C-36.5755 412.931 -36.2959 427.746 -25.1731 451.393L-24.0549 453.73C-22.6795 456.56 -21.1845 459.487 -18.8536 463.953L-15.4865 470.426C-10.8882 479.334 -8.97146 483.442 -6.88518 488.948C-3.424 498.082 -2.06966 505.911 -3.1596 513.17L-3.37212 514.462C-4.20594 519.277 -6.58192 531.307 -6.83418 532.682C-11.0393 555.606 -12.3282 576.565 -9.54368 602.699C-5.79936 637.837 5.33762 677.161 25.7387 721.993C26.7249 724.16 25.7733 726.721 23.6131 727.71C21.4529 728.7 18.9021 727.745 17.9158 725.578C-2.85844 679.923 -14.2489 639.706 -18.0946 603.615C-20.9167 577.129 -19.6897 555.699 -15.554 532.57L-15.1672 530.462C-14.5305 527.143 -12.0947 514.762 -11.6633 511.886C-10.8558 506.507 -11.8696 500.311 -14.6315 492.797L-15.1766 491.352C-17.1168 486.314 -19.0735 482.206 -23.7815 473.122L-27.7425 465.514C-29.8169 461.511 -31.1893 458.778 -32.5927 455.83C-38.4819 443.459 -41.5641 433.696 -41.8329 424.298C-42.1599 412.869 -38.0759 402.772 -28.9485 393.981L-28.4059 393.466C-20.9557 386.483 -15.5313 379.95 -11.6589 373.39C-7.08132 365.633 -4.53234 357.651 -3.31864 347.843L-3.11646 346.085C-2.3787 339.248 -2.2426 333.336 -2.4375 319.47L-2.66467 305.353C-2.83443 293.261 -2.79723 284.882 -2.45552 274.977L-2.39202 273.211C-0.895023 233.186 5.0287 200.992 17.4908 176.886Z" fill="white"/>
<path fill-rule="evenodd" clip-rule="evenodd" d="M127.795 500.34C104.239 525.002 87.0466 559.927 75.136 603.626C65.485 639.036 59.6192 678.745 56.3804 723.472C56.1994 725.973 58.1714 728.1 60.669 728.1H130.899C133.274 728.1 135.199 726.169 135.199 723.786V503.325C135.199 499.438 130.476 497.532 127.795 500.34ZM126.599 514.689V719.471H65.3042L65.317 719.295C68.585 677.041 74.2924 639.433 83.431 605.902C93.6506 568.407 107.789 537.743 126.416 514.913L126.599 514.689Z" fill="white"/>
<path fill-rule="evenodd" clip-rule="evenodd" d="M129.609 719.471C131.984 719.471 133.909 721.402 133.909 723.786C133.909 726.083 132.119 727.962 129.862 728.092L129.609 728.1H-43.8163C-54.1187 728.1 -61.7353 737.232 -59.7687 746.908L-22.7077 913.103C-22.1891 915.429 -23.6473 917.736 -25.9649 918.257C-28.1995 918.758 -30.4169 917.414 -31.0375 915.233L-31.0997 914.987L-68.0727 749.2C-71.5345 734.09 -59.9521 719.76 -44.2921 719.475L-43.8163 719.471H129.609Z" fill="white"/>
<path fill-rule="evenodd" clip-rule="evenodd" d="M1224.91 0.134644H130.899C128.524 0.134644 126.599 2.06622 126.599 4.44894V912.464C126.599 914.846 128.524 916.779 130.899 916.779H1224.91C1227.29 916.779 1229.21 914.846 1229.21 912.464V4.44894C1229.21 2.06622 1227.29 0.134644 1224.91 0.134644ZM1220.61 8.76179V908.15H135.199V8.76179H1220.61Z" fill="#2E186A"/>
<path fill-rule="evenodd" clip-rule="evenodd" d="M814.282 678.629H752.938C750.564 678.629 748.638 680.56 748.638 682.944V779.008C748.638 781.392 750.564 783.323 752.938 783.323H814.282C816.658 783.323 818.582 781.392 818.582 779.008V682.944C818.582 680.56 816.658 678.629 814.282 678.629ZM809.982 687.257V774.694H757.236V687.257H809.982Z" fill="#2E186A"/>
<path fill-rule="evenodd" clip-rule="evenodd" d="M910.598 638.219H849.254C846.88 638.219 844.954 640.15 844.954 642.534V779.008C844.954 781.392 846.88 783.323 849.254 783.323H910.598C912.972 783.323 914.898 781.392 914.898 779.008V642.534C914.898 640.15 912.972 638.219 910.598 638.219ZM906.296 646.847V774.694H853.552V646.847H906.296Z" fill="#2E186A"/>
<path fill-rule="evenodd" clip-rule="evenodd" d="M1006.77 574.367H945.426C943.052 574.367 941.126 576.298 941.126 578.682V779.008C941.126 781.392 943.052 783.323 945.426 783.323H1006.77C1009.15 783.323 1011.07 781.392 1011.07 779.008V578.682C1011.07 576.298 1009.15 574.367 1006.77 574.367ZM1002.47 582.995V774.694H949.726V582.995H1002.47Z" fill="#2E186A"/>
<path d="M1102.94 523.459H1041.6V779.009H1102.94V523.459Z" fill="#F99696"/>
<path fill-rule="evenodd" clip-rule="evenodd" d="M1123.73 392.304C1122.72 391.442 1121.43 391.153 1120.29 391.296L1080.15 397.769C1077.86 398.199 1076.14 400.357 1076.57 402.658C1077 404.959 1079.15 406.541 1081.44 406.253L1107.67 402.083L1029.42 493.258L997.454 462.483C996.594 461.621 995.448 461.189 994.302 461.333C993.154 461.333 992.008 461.908 991.292 462.772L886.376 585.01L855.99 562.143C854.27 560.849 851.978 560.993 850.4 562.432L756.234 653.031C754.516 654.614 754.516 657.345 756.092 659.071C756.952 659.934 758.098 660.364 759.244 660.364C760.248 660.364 761.394 659.934 762.254 659.214L853.84 571.059L884.656 594.213C886.52 595.507 888.956 595.364 890.532 593.638L995.018 471.83L1026.98 502.607C1027.84 503.469 1028.99 503.9 1030.13 503.757C1031.28 503.757 1032.43 503.182 1033.14 502.318L1116.7 404.959L1116.13 439.041C1116.13 441.488 1117.99 443.357 1120.43 443.357C1122.72 443.357 1124.73 441.488 1124.73 439.041L1125.45 395.468C1125.3 394.461 1124.73 393.167 1123.73 392.304Z" fill="#F99696"/>
<path fill-rule="evenodd" clip-rule="evenodd" d="M504.982 675.321C507.358 675.321 509.282 677.254 509.282 679.636C509.282 681.933 507.492 683.812 505.236 683.943L504.982 683.949H241.26C238.886 683.949 236.962 682.018 236.962 679.636C236.962 677.339 238.752 675.46 241.008 675.328L241.26 675.321H504.982Z" fill="#2E186A"/>
<path fill-rule="evenodd" clip-rule="evenodd" d="M435.47 715.588C437.844 715.588 439.768 717.521 439.768 719.903C439.768 722.2 437.978 724.079 435.722 724.209L435.47 724.216H241.26C238.886 724.216 236.962 722.285 236.962 719.903C236.962 717.606 238.752 715.727 241.008 715.595L241.26 715.588H435.47Z" fill="#2E186A"/>
<path fill-rule="evenodd" clip-rule="evenodd" d="M373.122 760.745C375.496 760.745 377.422 762.676 377.422 765.058C377.422 767.356 375.632 769.234 373.374 769.366L373.122 769.374H235.528C233.154 769.374 231.228 767.441 231.228 765.058C231.228 762.761 233.018 760.883 235.276 760.751L235.528 760.745H373.122Z" fill="#2E186A"/>
<path fill-rule="evenodd" clip-rule="evenodd" d="M649.17 675.321C651.544 675.321 653.47 677.254 653.47 679.636C653.47 681.933 651.68 683.812 649.422 683.943L649.17 683.949H535.368C532.994 683.949 531.068 682.018 531.068 679.636C531.068 677.339 532.858 675.46 535.116 675.328L535.368 675.321H649.17Z" fill="#2E186A"/>
<path fill-rule="evenodd" clip-rule="evenodd" d="M366.386 591.624L396.77 620.386V562.43L366.386 591.624Z" fill="#F99696"/>
<path fill-rule="evenodd" clip-rule="evenodd" d="M322.67 621.825L353.916 591.767L322.67 562.287V621.825Z" fill="#F99696"/>
<path fill-rule="evenodd" clip-rule="evenodd" d="M477.608 552.221H407.378L442.778 585.728L477.608 552.221Z" fill="#F99696"/>
<path fill-rule="evenodd" clip-rule="evenodd" d="M360.08 597.665L324.534 632.034H396.484L360.08 597.665Z" fill="#F99696"/>
<path fill-rule="evenodd" clip-rule="evenodd" d="M405.37 621.825L436.616 591.767L405.37 562.287V621.825Z" fill="#F99696"/>
<path fill-rule="evenodd" clip-rule="evenodd" d="M235.528 558.26V625.995L271.074 591.767L235.528 558.26Z" fill="#F99696"/>
<path fill-rule="evenodd" clip-rule="evenodd" d="M277.38 597.665L241.834 632.034H313.784L277.38 597.665Z" fill="#F99696"/>
<path fill-rule="evenodd" clip-rule="evenodd" d="M312.064 552.221H241.834L277.38 585.728L312.064 552.221Z" fill="#F99696"/>
<path fill-rule="evenodd" clip-rule="evenodd" d="M479.47 620.386V562.43L449.086 591.624L479.47 620.386Z" fill="#F99696"/>
<path fill-rule="evenodd" clip-rule="evenodd" d="M283.686 591.624L314.072 620.386V562.43L283.686 591.624Z" fill="#F99696"/>
<path fill-rule="evenodd" clip-rule="evenodd" d="M442.922 597.665L407.378 632.034H479.328L442.922 597.665Z" fill="#F99696"/>
<path fill-rule="evenodd" clip-rule="evenodd" d="M394.764 552.221H324.534L360.08 585.728L394.764 552.221Z" fill="#F99696"/>
<path fill-rule="evenodd" clip-rule="evenodd" d="M562.17 552.221H488.07V632.034H562.17V552.221Z" fill="#F99696"/>
<path fill-rule="evenodd" clip-rule="evenodd" d="M649.17 552.221H570.77V632.034H649.17V552.221Z" fill="#F99696"/>
<path fill-rule="evenodd" clip-rule="evenodd" d="M479.184 632.034C479.328 632.179 479.328 632.179 479.47 632.179V632.034H479.184Z" fill="#F99696"/>
<path fill-rule="evenodd" clip-rule="evenodd" d="M1063.24 255.398H1018.81C1016.44 255.398 1014.51 257.329 1014.51 259.711V304.291C1014.51 306.676 1016.44 308.607 1018.81 308.607H1063.24C1065.62 308.607 1067.54 306.676 1067.54 304.291V259.711C1067.54 257.329 1065.62 255.398 1063.24 255.398ZM1058.94 264.025V299.976H1023.11V264.025H1058.94Z" fill="#2E186A"/>
<path fill-rule="evenodd" clip-rule="evenodd" d="M1071.98 174.576H902.142C899.768 174.576 897.842 176.508 897.842 178.89V230.231C897.842 232.613 899.768 234.544 902.142 234.544H1071.98C1074.36 234.544 1076.28 232.613 1076.28 230.231V178.89C1076.28 176.508 1074.36 174.576 1071.98 174.576ZM1067.68 183.205V225.915H906.442V183.205H1067.68Z" fill="#2E186A"/>
<path fill-rule="evenodd" clip-rule="evenodd" d="M988.568 299.978C990.942 299.978 992.868 301.909 992.868 304.291C992.868 306.591 991.078 308.467 988.82 308.599L988.568 308.607H902.142C899.768 308.607 897.842 306.676 897.842 304.291C897.842 301.994 899.632 300.116 901.89 299.986L902.142 299.978H988.568Z" fill="#2E186A"/>
<path fill-rule="evenodd" clip-rule="evenodd" d="M988.568 278.837C990.942 278.837 992.868 280.768 992.868 283.153C992.868 285.45 991.078 287.329 988.82 287.458L988.568 287.466H902.142C899.768 287.466 897.842 285.535 897.842 283.153C897.842 280.854 899.632 278.977 901.89 278.845L902.142 278.837H988.568Z" fill="#2E186A"/>
<path fill-rule="evenodd" clip-rule="evenodd" d="M988.568 257.842C990.942 257.842 992.868 259.773 992.868 262.155C992.868 264.454 991.078 266.331 988.82 266.463L988.568 266.471H902.142C899.768 266.471 897.842 264.538 897.842 262.155C897.842 259.858 899.632 257.98 901.89 257.85L902.142 257.842H988.568Z" fill="#2E186A"/>
<path fill-rule="evenodd" clip-rule="evenodd" d="M998.888 420.49C1001.26 420.49 1003.19 422.421 1003.19 424.806C1003.19 427.103 1001.4 428.981 999.14 429.111L998.888 429.119H762.828C760.454 429.119 758.528 427.188 758.528 424.806C758.528 422.507 760.318 420.63 762.576 420.498L762.828 420.49H998.888Z" fill="#2E186A"/>
<path fill-rule="evenodd" clip-rule="evenodd" d="M902.142 440.767C904.516 440.767 906.442 442.7 906.442 445.082C906.442 447.38 904.652 449.258 902.394 449.39L902.142 449.396H762.828C760.454 449.396 758.528 447.465 758.528 445.082C758.528 442.785 760.318 440.907 762.576 440.775L762.828 440.767H902.142Z" fill="#2E186A"/>
<path fill-rule="evenodd" clip-rule="evenodd" d="M520.606 301.99L682.564 219.588C695.464 245.187 702.2 273.374 702.2 301.99C702.2 401.939 620.218 484.199 520.606 484.199C465.282 484.199 412.966 458.888 378.568 415.456L520.606 301.99Z" fill="#F99696"/>
<path fill-rule="evenodd" clip-rule="evenodd" d="M809.84 158.613C812.214 158.613 814.14 160.545 814.14 162.927C814.14 165.225 812.35 167.103 810.092 167.234L809.84 167.242H659.776C657.402 167.242 655.476 165.31 655.476 162.927C655.476 160.63 657.266 158.752 659.524 158.62L659.776 158.613H809.84Z" fill="#2E186A"/>
<path fill-rule="evenodd" clip-rule="evenodd" d="M809.84 178.89C812.214 178.89 814.14 180.822 814.14 183.205C814.14 185.502 812.348 187.38 810.092 187.512L809.84 187.519H729.862C727.488 187.519 725.562 185.587 725.562 183.205C725.562 180.907 727.354 179.029 729.61 178.898L729.862 178.89H809.84Z" fill="#2E186A"/>
<path fill-rule="evenodd" clip-rule="evenodd" d="M809.84 199.311C812.214 199.311 814.138 201.244 814.138 203.626C814.138 205.923 812.348 207.802 810.092 207.932L809.84 207.939H756.664C754.29 207.939 752.364 206.008 752.364 203.626C752.364 201.327 754.156 199.45 756.412 199.318L756.664 199.311H809.84Z" fill="#2E186A"/>
<path fill-rule="evenodd" clip-rule="evenodd" d="M814.282 320.112C816.656 320.112 818.582 322.043 818.582 324.425C818.582 326.724 816.792 328.601 814.534 328.732L814.282 328.74H620.648C618.272 328.74 616.348 326.809 616.348 324.425C616.348 322.128 618.138 320.249 620.394 320.119L620.648 320.112H814.282Z" fill="#2E186A"/>
<path fill-rule="evenodd" clip-rule="evenodd" d="M814.282 336.075C816.656 336.075 818.582 338.006 818.582 340.388C818.582 342.686 816.792 344.564 814.534 344.696L814.282 344.704H778.02C775.646 344.704 773.72 342.771 773.72 340.388C773.72 338.091 775.51 336.213 777.768 336.081L778.02 336.075H814.282Z" fill="#2E186A"/>
<path fill-rule="evenodd" clip-rule="evenodd" d="M410.53 141.787C412.904 141.787 414.83 143.719 414.83 146.102C414.83 148.399 413.04 150.277 410.782 150.409L410.53 150.416H295.152C292.778 150.416 290.852 148.484 290.852 146.102C290.852 143.804 292.642 141.926 294.9 141.795L295.152 141.787H410.53Z" fill="#2E186A"/>
<path fill-rule="evenodd" clip-rule="evenodd" d="M318.228 158.182C320.602 158.182 322.528 160.113 322.528 162.496C322.528 164.794 320.738 166.672 318.48 166.803L318.228 166.81H295.152C292.778 166.81 290.852 164.879 290.852 162.496C290.852 160.198 292.642 158.32 294.9 158.189L295.152 158.182H318.228Z" fill="#2E186A"/>
<path fill-rule="evenodd" clip-rule="evenodd" d="M486.734 305.731L312.018 307.6C309.644 307.625 307.74 309.577 307.764 311.961C308.194 352.356 321.956 390.574 346.538 421.594C348.014 423.458 350.714 423.767 352.574 422.29L489.452 313.426C492.662 310.873 490.832 305.686 486.734 305.731ZM474.266 314.491L350.64 412.817L350.306 412.375C329.732 384.856 317.854 351.798 316.488 316.819L316.464 316.182L474.266 314.491Z" fill="#F99696"/>
<path fill-rule="evenodd" clip-rule="evenodd" d="M327.26 229.537C319.318 250.135 315.218 271.968 315.218 294.512V296.813C315.218 299.219 317.178 301.16 319.574 301.129L494.146 298.828C498.874 298.766 500.052 292.208 495.646 290.491L332.826 227.072C330.61 226.208 328.118 227.312 327.26 229.537ZM333.778 236.698L471.884 290.491L323.83 292.442L323.842 291.59C324.148 273.097 327.356 255.142 333.31 238.026L333.778 236.698Z" fill="#F99696"/>
<path fill-rule="evenodd" clip-rule="evenodd" d="M609.6 123.692L523.46 275.7C521.362 279.401 525.31 283.59 529.112 281.694L685.194 203.893C687.316 202.836 688.186 200.254 687.138 198.122C671.464 166.228 646.392 139.66 615.458 122.071C613.394 120.897 610.772 121.623 609.6 123.692ZM614.924 131.749L615.434 132.057C641.542 147.919 662.962 170.621 677.208 197.587L677.478 198.104L537.894 267.683L614.924 131.749Z" fill="#F99696"/>
<path fill-rule="evenodd" clip-rule="evenodd" d="M593.272 129.851C568.046 115.326 538.808 106.985 507.706 106.698H504.84C431.6 107.417 369.252 153.292 344.026 217.862L506.56 281.859L593.272 129.851Z" fill="#2E186A"/>
<path fill-rule="evenodd" clip-rule="evenodd" d="M344.6 336.65C346.974 336.65 348.9 338.581 348.9 340.964C348.9 343.261 347.11 345.139 344.852 345.271L344.6 345.279H229.222C226.846 345.279 224.922 343.346 224.922 340.964C224.922 338.667 226.712 336.788 228.968 336.656L229.222 336.65H344.6Z" fill="#2E186A"/>
<path fill-rule="evenodd" clip-rule="evenodd" d="M270.93 353.044C273.304 353.044 275.23 354.975 275.23 357.359C275.23 359.656 273.44 361.535 271.182 361.665L270.93 361.672H229.222C226.846 361.672 224.922 359.741 224.922 357.359C224.922 355.06 226.712 353.183 228.968 353.051L229.222 353.044H270.93Z" fill="#2E186A"/>
<path fill-rule="evenodd" clip-rule="evenodd" d="M1103.82 834.241C1106.19 834.091 1108.23 835.899 1108.38 838.277C1108.53 840.655 1106.73 842.703 1104.36 842.852C1095.47 843.41 1086.1 844.473 1076.87 846.022L1064.74 848.161L1059.49 849.112C1058.16 849.354 1056.88 849.592 1055.63 849.826L1053.78 850.177C1040.41 852.73 1030.81 854.982 1025.22 857.053C1023.92 857.535 1022.89 857.988 1022.18 858.391C1022.01 858.488 1021.86 858.579 1021.74 858.656L1021.57 858.778C1020.73 860.14 1020.99 860.855 1022.89 862.021L1023.14 862.168C1026.22 863.985 1031.51 865.056 1037.01 864.866C1039.38 864.783 1041.37 866.648 1041.45 869.028C1041.53 871.411 1039.68 873.407 1037.3 873.489C1030.29 873.731 1023.41 872.34 1018.78 869.607C1012.64 865.985 1010.53 859.898 1014.5 853.865C1015.85 851.806 1018.33 850.405 1022.25 848.957L1023.13 848.637C1029.05 846.559 1038.05 844.436 1050.27 842.067L1054.05 841.347C1056.25 840.932 1058.55 840.508 1061.04 840.059L1073.25 837.892C1083.49 836.086 1093.93 834.86 1103.82 834.241Z" fill="#2E186A"/>
<path fill-rule="evenodd" clip-rule="evenodd" d="M1180.58 827.22L1180.65 827.466L1200.86 911.451C1201.49 914.083 1199.58 916.62 1196.93 916.771L1196.68 916.777H1082.73L1082.24 916.806C1068.2 917.564 1059.83 913.901 1059.52 906.016L1059.51 905.669C1059.51 905.054 1059.56 904.438 1059.67 903.824L1059.72 903.572L1059.31 903.556C1051.29 903.159 1043.35 899.011 1041.49 894.116L1041.39 893.839C1040.9 892.377 1041.07 890.771 1041.79 889.071L1041.84 888.964L1041.55 889.001C1037.73 889.472 1034.63 889.485 1032.19 889.018L1031.82 888.943C1024.6 887.38 1022.69 881.378 1026.27 874.182C1028.43 869.758 1038.9 862.828 1055.21 853.87L1057.88 852.418C1069.9 845.929 1081.92 840.173 1086.85 838.598L1087.7 838.347C1091.9 837.171 1105.55 834.839 1126.71 831.554L1131.47 830.82C1137.65 829.869 1144.11 828.893 1150.67 827.913L1167.8 825.382L1175.86 824.208C1177.97 823.904 1179.97 825.197 1180.58 827.22ZM1191.22 908.149L1173.21 833.311L1163.24 834.771L1151.94 836.447C1147.26 837.146 1142.63 837.843 1138.12 838.531L1124.73 840.595C1106.12 843.506 1093.58 845.668 1090.07 846.638L1089.79 846.72C1079.22 849.753 1036.26 873.345 1033.98 878.009C1033.57 878.823 1033.31 879.507 1033.18 880.043L1033.13 880.264L1033.11 880.366L1033.33 880.434L1033.64 880.51C1036.49 881.128 1042.15 880.502 1050.41 878.571L1052.08 878.168L1052.16 878.112C1055.79 875.488 1060.15 872.865 1065.02 870.37L1065.6 870.072C1068.19 868.763 1070.99 867.434 1073.98 866.092C1079.52 863.609 1085.43 861.198 1091.34 858.945L1093.07 858.288C1093.92 857.971 1094.74 857.667 1095.53 857.378L1097.49 856.663L1099.24 856.04C1101.49 855.261 1103.94 856.454 1104.71 858.707C1105.46 860.878 1104.38 863.239 1102.29 864.105L1099.97 864.94L1098.48 865.482C1097.2 865.951 1095.83 866.462 1094.39 867.012C1088.62 869.21 1082.86 871.562 1077.49 873.969C1074.62 875.257 1071.93 876.53 1069.48 877.773C1062.93 881.095 1057.33 884.753 1053.52 888.073C1052.13 889.284 1051.06 890.39 1050.35 891.294L1050.18 891.523L1050.45 891.732C1051.48 892.512 1052.86 893.272 1054.38 893.859C1057.86 895.203 1061.46 895.449 1064.54 894.368L1064.64 894.331L1065.01 894.11C1069.36 891.488 1075.27 888.778 1082.39 886.005L1083.32 885.642C1086.37 884.473 1089.53 883.328 1092.75 882.222L1094.78 881.527L1096.78 880.727C1105.23 877.355 1107.98 876.667 1110.37 877.167L1110.49 877.194C1114.83 878.184 1114.99 884.325 1110.71 885.55L1109.47 885.916L1107.17 886.605C1106.16 886.915 1105.09 887.246 1103.98 887.601L1103.13 887.87C1101.86 888.275 1100.59 888.685 1099.33 889.104L1097.85 889.598L1093.18 891.501L1083.32 895.571C1080.34 896.787 1078.41 897.548 1076.48 898.269L1075.71 898.553C1071.49 900.056 1068.1 903.62 1068.11 905.596C1068.12 906.022 1068.41 906.413 1069.74 906.992C1072.09 908.013 1076.08 908.491 1081.67 908.195L1082.32 908.158L1082.59 908.15L1191.22 908.149Z" fill="#2E186A"/>
<path fill-rule="evenodd" clip-rule="evenodd" d="M1521.74 601.546C1523.03 563.869 1502.54 528.923 1469.14 511.811L1415.11 482.617L1409.23 509.364C1402.78 538.415 1374.12 556.823 1345.17 550.35L1338.14 548.769C1309.19 542.296 1290.84 513.536 1297.29 484.486L1306.32 443.787C1296 436.597 1287.83 426.818 1283.96 414.163C1283.68 413.301 1283.53 412.437 1283.25 411.718L1229.36 382.668L1229.21 802.161L1375.41 772.105L1368.38 673.595C1368.24 671.151 1369.96 669.138 1372.4 668.993C1374.83 668.85 1376.84 670.575 1376.98 673.02L1384.29 775.269C1384.44 777.427 1383 779.44 1380.85 779.871L1229.21 811.078V812.228L1146.23 827.471C1162.57 830.636 1180.63 911.889 1180.63 911.889H1475.02C1503.69 911.889 1526.9 888.304 1526.47 859.398L1521.74 601.546Z" fill="#2E186A"/>
<path fill-rule="evenodd" clip-rule="evenodd" d="M1423.23 420.756C1423.71 418.424 1425.99 416.929 1428.32 417.419C1430.56 417.891 1432.02 420.033 1431.69 422.278L1431.64 422.526L1413.29 510.304C1406.38 541.388 1375.95 561.148 1345.02 554.762L1344.08 554.561L1337.06 552.98C1306.08 546.054 1286.39 515.518 1292.75 484.489L1292.95 483.548L1301.98 442.849C1302.5 440.525 1304.8 439.059 1307.11 439.576C1309.35 440.076 1310.79 442.237 1310.43 444.476L1310.38 444.724L1301.35 485.423C1295.48 511.849 1311.93 538.068 1338.14 544.375L1338.94 544.559L1345.96 546.139C1372.29 552.027 1398.42 535.517 1404.7 509.277L1404.88 508.479L1423.23 420.756Z" fill="#2E186A"/>
<path fill-rule="evenodd" clip-rule="evenodd" d="M1326.13 224.437L1325.18 226.055C1308.82 254.199 1294.99 288.252 1285.14 321.917L1285.12 322.012L1285.12 321.963C1285.12 321.979 1285.12 321.996 1285.11 322.017L1284.73 323.334L1284.38 324.562L1284.01 325.883C1283.89 326.34 1283.76 326.813 1283.63 327.307C1282.49 331.58 1281.37 336.292 1280.31 341.374C1277.21 356.352 1275.38 371.331 1275.48 385.389C1275.56 396.516 1276.86 406.609 1279.57 415.435C1285.26 433.922 1299.75 447.848 1319.53 455.96C1336.87 463.07 1357.11 465.055 1373.31 461.522L1375.04 461.141C1401.42 455.247 1410.2 449.903 1424.66 432.892L1425.13 432.34C1429.66 426.969 1436.64 415.958 1445.54 400.527L1447.61 396.917C1448.14 395.989 1448.68 395.05 1449.22 394.099C1453.83 385.958 1458.6 377.295 1463.3 368.585L1465.89 363.77C1466.47 362.689 1467.04 361.636 1467.58 360.615L1471.52 353.179L1471.75 352.724C1472.34 351.525 1473.15 349.751 1474.1 347.452C1475.55 343.923 1476.96 339.989 1478.25 335.705C1481.86 323.774 1483.95 311.169 1483.85 298.359C1483.57 262.039 1465.95 230.951 1425.87 209.593L1424.41 208.825C1420.67 206.892 1416.24 204.881 1411.07 202.938C1402.38 199.669 1393.46 197.362 1384.6 196.423C1360.2 193.835 1339.77 201.894 1326.53 223.767L1326.13 224.437ZM1383.7 205.003C1391.77 205.859 1399.99 207.99 1408.06 211.019C1413.53 213.074 1418.09 215.206 1421.83 217.209C1459.04 237.04 1474.99 265.187 1475.25 298.429C1475.35 310.294 1473.39 322.052 1470.02 333.205C1468.81 337.212 1467.49 340.886 1466.15 344.165L1465.66 345.322C1465.43 345.879 1465.2 346.406 1464.97 346.902L1464.48 347.971C1464.36 348.24 1464.25 348.473 1464.15 348.666L1463.72 349.524L1461.06 354.556C1460.02 356.501 1458.91 358.581 1457.74 360.77L1457.14 361.874C1452.02 371.407 1446.78 380.94 1441.74 389.834L1440.15 392.627L1438.59 395.35C1429.88 410.489 1422.98 421.432 1418.79 426.491L1417.68 427.8C1404.42 443.314 1397.1 447.502 1371.48 453.089C1357.02 456.246 1338.54 454.434 1322.78 447.972C1305.22 440.773 1292.64 428.685 1287.79 412.89C1285.34 404.947 1284.15 395.672 1284.08 385.329C1283.99 372.472 1285.61 358.664 1288.39 344.797L1288.82 342.724L1289.06 341.597C1290.43 335.289 1292.5 327.28 1293.27 324.307L1293.39 324.346C1303.06 291.313 1316.63 257.892 1332.6 230.415L1333.53 228.836C1344.88 209.638 1362.15 202.72 1383.7 205.003Z" fill="#2E186A"/>
<path fill-rule="evenodd" clip-rule="evenodd" d="M1289.27 322.988C1297.72 294.226 1311.2 257.842 1329.83 226.49C1330.69 225.053 1331.55 223.614 1332.55 222.32C1317.5 210.529 1292.99 234.832 1276.08 285.022C1267.34 310.908 1243.55 323.995 1243.55 323.995C1261.75 339.956 1278.23 333.054 1288.98 323.995C1289.12 323.42 1289.12 322.988 1289.27 322.988Z" fill="#2E186A"/>
<path fill-rule="evenodd" clip-rule="evenodd" d="M1327.7 304.853C1328.58 302.639 1331.08 301.561 1333.28 302.442C1335.41 303.292 1336.49 305.655 1335.77 307.807L1335.69 308.045L1317.97 352.685L1329.74 357.049C1331.89 357.845 1333.03 360.181 1332.37 362.352L1332.29 362.592C1331.49 364.748 1329.17 365.887 1327 365.225L1326.76 365.143L1310.85 359.247C1308.67 358.438 1307.54 356.038 1308.26 353.848L1308.35 353.605L1327.7 304.853Z" fill="#2E186A"/>
<path fill-rule="evenodd" clip-rule="evenodd" d="M1318.72 303.067C1320.43 299.052 1319.76 294.909 1317.21 293.813C1314.67 292.717 1311.21 295.084 1309.5 299.099C1307.78 303.112 1308.45 307.255 1311 308.351C1313.54 309.447 1317 307.082 1318.72 303.067Z" fill="#2E186A"/>
<path fill-rule="evenodd" clip-rule="evenodd" d="M1362.94 322.201C1363.88 317.936 1362.44 313.991 1359.74 313.393C1357.03 312.794 1354.08 315.767 1353.14 320.032C1352.2 324.297 1353.64 328.24 1356.34 328.841C1359.05 329.439 1362 326.466 1362.94 322.201Z" fill="#2E186A"/>
<path fill-rule="evenodd" clip-rule="evenodd" d="M1375.06 289.928C1375.53 287.592 1377.79 286.075 1380.12 286.544C1386.68 287.859 1391.83 291.053 1395.65 295.518C1397.45 297.617 1398.83 299.862 1399.86 302.112C1400.49 303.501 1400.88 304.628 1401.07 305.37C1401.66 307.677 1400.28 310.03 1397.98 310.627C1395.77 311.202 1393.51 309.932 1392.81 307.772L1392.68 307.321C1392.58 306.986 1392.37 306.426 1392.04 305.709C1391.33 304.154 1390.37 302.589 1389.12 301.138C1386.51 298.084 1383.03 295.926 1378.43 295.004C1376.11 294.537 1374.6 292.264 1375.06 289.928Z" fill="#2E186A"/>
<path fill-rule="evenodd" clip-rule="evenodd" d="M1318.56 258.652C1323.7 258.274 1328.88 260.019 1333.94 263.087C1336.6 264.7 1338.66 266.32 1339.9 267.462C1341.65 269.076 1341.77 271.805 1340.16 273.56C1338.56 275.314 1335.84 275.431 1334.09 273.819L1333.91 273.658C1333.69 273.469 1333.35 273.184 1332.9 272.831C1331.88 272.028 1330.73 271.22 1329.49 270.47C1325.82 268.243 1322.23 267.034 1319.18 267.257C1317.74 267.362 1316.44 267.786 1315.21 268.578L1314.85 268.828C1312.92 270.215 1310.23 269.769 1308.85 267.832C1307.47 265.895 1307.91 263.199 1309.84 261.813C1312.48 259.915 1315.43 258.88 1318.56 258.652Z" fill="#2E186A"/>
<path fill-rule="evenodd" clip-rule="evenodd" d="M1563.74 324.425L1515.15 299.69C1521.31 263.451 1517.44 207.364 1449.65 175.726C1343.59 126.256 1304.89 232.818 1304.89 232.818L1547.83 355.777C1556.43 360.233 1567.04 356.638 1571.48 348.01C1575.92 339.381 1572.48 328.884 1563.74 324.425Z" fill="#F99696"/>
<path fill-rule="evenodd" clip-rule="evenodd" d="M1355.88 382.877C1357.67 384.45 1357.85 387.175 1356.28 388.966C1355.96 389.328 1355.44 389.855 1354.72 390.491C1353.57 391.496 1352.22 392.487 1350.67 393.409C1341.55 398.836 1330.03 399.528 1316.82 392.685C1314.71 391.593 1313.88 388.99 1314.97 386.873C1316.06 384.756 1318.66 383.927 1320.77 385.019C1331.25 390.448 1339.63 389.946 1346.28 385.989C1347.36 385.344 1348.29 384.661 1349.06 383.987L1349.42 383.667L1349.82 383.274C1351.38 381.484 1354.1 381.306 1355.88 382.877Z" fill="#2E186A"/>
<path fill-rule="evenodd" clip-rule="evenodd" d="M1509.56 336.362L1407.08 284.447C1395.19 321.694 1380.28 396.33 1443.77 416.032C1443.77 416.032 1493.37 432.57 1507.7 416.177C1507.7 416.177 1473.59 391.153 1481.33 370.588C1481.33 370.588 1516.15 422.359 1557.15 394.893C1557 394.893 1508.7 379.361 1509.56 336.362Z" fill="#2E186A"/>
<path fill-rule="evenodd" clip-rule="evenodd" d="M1772.57 908.005C1774.94 908.005 1776.87 909.938 1776.87 912.32C1776.87 914.618 1775.08 916.496 1772.82 916.626L1772.57 916.634H-491.426C-493.802 916.634 -495.726 914.703 -495.726 912.32C-495.726 910.021 -493.936 908.145 -491.68 908.013L-491.426 908.005H1772.57Z" fill="#2E186A"/>
</g>
<defs>
<clipPath id="clip0_6473_242">
<rect width="1778" height="920" fill="white"/>
</clipPath>
</defs>
</svg>
