<svg width="1441" height="907" viewBox="0 0 1441 907" fill="none" xmlns="http://www.w3.org/2000/svg">
<path fill-rule="evenodd" clip-rule="evenodd" d="M540.602 598.388C529.322 591.875 519.686 594.941 509.11 607.202C513.929 577.569 513.811 541.68 492.19 535.676C469.982 529.417 457.41 544.489 444.366 580.891C444.837 549.726 439.196 509.493 415.46 507.832C388.787 506.044 379.856 529.928 373.276 582.934C364.933 553.303 342.02 501.318 314.994 511.663C288.557 521.754 290.318 549.47 305.006 605.925C290.554 581.529 261.53 545.255 242.143 559.05C223.694 572.077 228.746 593.407 249.192 633.002C235.679 626.616 221.697 625.978 210.416 637.983C185.152 665.06 197.374 690.733 232.272 738.374C267.288 786.015 518.628 701.717 530.497 680.26C542.482 658.675 561.165 610.395 540.602 598.388Z" fill="white"/>
<path fill-rule="evenodd" clip-rule="evenodd" d="M383.533 523.401C378.681 532.992 375.144 546.276 372.106 565.683L371.895 567.046L371.867 566.973C367.023 553.589 360.789 540.37 354.008 530.077C341.665 511.341 328.008 502.62 313.824 508.05C299.599 513.479 292.381 523.929 291.107 540.511L291.031 541.62C290.366 552.617 292.081 566.315 296.42 585.694L296.657 586.749L296.354 586.338C290.371 578.257 283.958 570.9 277.681 565.221C263.683 552.554 250.74 548.353 240.211 555.843C229.924 563.109 225.878 573.106 227.59 586.588L227.657 587.096C229.001 596.946 233.309 608.848 241.205 625.091L241.715 626.139L241.42 626.058C228.733 622.639 217.267 625.33 207.95 635.246C194.6 649.554 190.696 664.144 195.401 681.547L195.659 682.478C199.872 697.248 209.834 713.896 229.514 740.761C246.466 763.824 307.573 760.545 390.882 738.957C459.213 721.249 526.666 694.624 533.518 682.235C540.851 669.027 547.887 651.528 551.182 636.627C555.633 616.505 553.457 601.546 542.269 595.014L541.838 594.768C532.23 589.389 523.395 590.122 514.548 596.867L514.053 597.249L514.125 596.615C515.548 583.742 515.615 571.859 514.038 561.927C511.492 545.868 504.69 535.192 493.063 531.963L492.362 531.772C473.017 526.623 459.987 535.895 447.914 562.435L447.49 563.372L447.476 563.148C446.735 551.635 445.048 540.981 442.336 532.092C437.16 515.115 428.381 504.897 415.686 504.009C401.118 503.031 390.875 509.181 383.759 522.959L383.533 523.401ZM415.243 511.656C432.781 512.883 441.438 541.274 440.842 580.827C440.777 585.1 446.224 586.264 447.65 582.28C460.829 545.502 472.318 534.035 491.305 539.386C507.403 543.854 511.565 570.09 505.639 606.535C505.029 610.288 509.285 612.602 511.683 609.823L512.457 608.939C521.837 598.425 529.627 596.39 538.948 601.772C546.427 606.139 548.113 617.725 544.328 634.836C541.215 648.909 534.464 665.699 527.478 678.28C525.211 682.38 508.001 691.469 482.613 701.491C455.665 712.128 422.028 723.008 389.248 731.502C309.262 752.23 249.33 755.446 235.026 735.982L232.659 732.737C214.709 707.986 205.726 692.562 202.165 679.388C198.217 664.78 201.344 653.087 212.892 640.712C222.104 630.906 233.867 629.937 247.786 636.516C250.884 637.98 253.919 634.328 252.266 631.127C231.1 590.137 228.918 572.958 244.063 562.263C257.795 552.492 282.289 574.657 302.042 607.999C304.236 611.7 309.501 609.118 308.399 604.882C292.747 544.723 294.166 523.674 316.163 515.279C326.62 511.276 337.547 518.252 348.276 534.538C357.083 547.908 365.045 566.792 369.906 584.055C371.013 587.987 376.264 587.52 376.769 583.446C383.662 527.919 392.836 510.154 415.243 511.656Z" fill="#FAA5A5"/>
<path fill-rule="evenodd" clip-rule="evenodd" d="M542.599 679.239L542.835 678.471L204.776 679.621L205.011 680.388C187.033 684.22 174.224 702.867 177.162 723.431L202.426 900.712L545.067 899.562L570.33 722.281C573.385 701.846 560.578 683.07 542.599 679.239Z" fill="#FECBCB"/>
<path fill-rule="evenodd" clip-rule="evenodd" d="M1096.28 615.376C1090.99 615.376 1085.7 615.759 1080.53 616.398C1052.45 574.249 1020.25 538.485 986.412 515.751C898.283 456.743 777.254 473.602 664.333 519.072C586.663 550.237 488.313 650.883 425.213 722.154C342.961 728.923 279.743 789.719 283.503 859.329C284.326 874.528 288.321 888.834 294.784 901.989L570.8 904.034C571.271 903.266 571.74 902.373 572.21 901.607L981.593 900.073C982.064 900.712 982.533 901.351 983.004 902.117L1209.67 901.734C1230.7 871.463 1243.27 832.763 1243.27 790.486C1243.27 693.671 1177.47 615.376 1096.28 615.376Z" fill="#5D21D1"/>
<path fill-rule="evenodd" clip-rule="evenodd" d="M994.518 521.499C890.293 591.746 796.76 593.28 736.128 581.912C679.962 571.438 639.422 547.938 626.262 538.742C624.03 540.146 621.796 541.551 619.447 542.957C630.257 551.003 672.558 577.569 733.66 589.192C753.637 593.025 773.729 594.94 793.94 594.94C814.503 594.94 835.067 593.025 855.512 589.065C904.981 579.485 953.746 558.411 1000.75 526.351C998.632 524.565 996.634 523.031 994.518 521.499Z" fill="white"/>
<path fill-rule="evenodd" clip-rule="evenodd" d="M983.709 642.198C1000.28 616.909 1020.72 602.731 1044.58 599.922C1055.62 598.644 1064.9 600.304 1070.43 601.71C1068.19 598.644 1065.96 595.579 1063.73 592.641C1058.32 591.875 1051.63 591.491 1044.22 592.386C1026.25 594.429 1000.16 603.88 977.951 637.856C976.776 639.516 977.246 641.943 978.773 643.22C979.361 643.731 980.066 643.986 980.771 643.986C981.946 643.859 983.003 643.348 983.709 642.198Z" fill="white"/>
<path fill-rule="evenodd" clip-rule="evenodd" d="M985.002 731.988C986.999 731.988 988.526 730.328 988.644 728.284C988.879 717.045 992.992 691.5 1007.44 667.487C1024.13 639.516 1048.81 622.401 1080.53 616.271C1079 613.971 1077.48 611.672 1075.83 609.372C1044.11 616.398 1018.49 634.918 1001.45 663.273C987.234 687.029 981.829 713.085 981.476 728.03C981.476 730.2 983.004 731.988 985.002 731.988Z" fill="white"/>
<path fill-rule="evenodd" clip-rule="evenodd" d="M487.138 694.309C472.215 693.671 457.879 695.204 447.304 697.631C443.778 701.462 440.254 705.294 436.845 709.126C449.889 701.335 524.151 691.627 554.82 729.562C555.525 730.456 556.465 730.839 557.523 730.839C558.345 730.839 559.168 730.584 559.872 729.945C561.282 728.539 561.518 726.112 560.225 724.58C540.366 699.93 505.938 695.077 487.138 694.309Z" fill="white"/>
<path fill-rule="evenodd" clip-rule="evenodd" d="M422.863 722.409C422.863 722.409 422.981 722.409 423.097 722.409C422.981 722.281 422.863 722.409 422.863 722.409C422.746 722.409 422.863 722.409 422.863 722.409Z" fill="white"/>
<path fill-rule="evenodd" clip-rule="evenodd" d="M547.534 749.103C506.056 715.001 454.354 712.958 432.499 713.98C430.031 716.789 427.563 719.472 425.213 722.154C437.786 721.004 497.831 717.939 543.304 755.234C543.892 755.745 544.714 756 545.42 756C546.477 756 547.534 755.489 548.24 754.468C549.415 752.807 549.062 750.38 547.534 749.103Z" fill="white"/>
<path fill-rule="evenodd" clip-rule="evenodd" d="M368.341 900.839C368.341 900.839 406.883 776.948 515.339 799.426C623.794 821.906 772.202 870.186 772.202 870.186V901.223L368.341 900.839Z" fill="white"/>
<path fill-rule="evenodd" clip-rule="evenodd" d="M440.498 804.527C422.061 813.877 406.26 828.29 392.911 846.372C384.33 857.996 377.272 870.434 371.631 882.874C369.655 887.232 367.995 891.284 366.639 894.928L366.065 896.5C365.886 896.997 365.721 897.468 365.568 897.91L365.112 899.267C365.066 899.409 365.029 899.524 365.002 899.613C364.229 902.095 365.927 904.67 368.338 904.672L772.198 905.055C774.146 905.057 775.726 903.341 775.726 901.223V870.186C775.726 868.493 774.705 867.001 773.212 866.516L768.523 865.004L762.186 862.984C753.346 860.176 743.35 857.05 732.403 853.682C701.126 844.062 668.485 834.44 636.108 825.46C619.835 820.946 604.013 816.703 588.757 812.778L584.475 811.68C559.609 805.333 536.658 799.944 515.998 795.663C487.89 789.837 462.74 793.243 440.498 804.527ZM514.678 803.191C536.407 807.694 560.709 813.435 587.132 820.234C602.347 824.15 618.131 828.382 634.365 832.886C664.977 841.376 695.832 850.443 725.542 859.54L730.483 861.056C740.417 864.112 749.566 866.97 757.775 869.568L768.677 873.044V897.388L373.471 897.013L373.793 896.17C374.964 893.127 376.349 889.802 377.956 886.262C383.382 874.294 390.174 862.325 398.41 851.169C411.123 833.948 426.102 820.285 443.479 811.471C464.378 800.869 488.024 797.667 514.678 803.191Z" fill="#2E186A"/>
<path fill-rule="evenodd" clip-rule="evenodd" d="M1224.71 443.203C1224.71 443.203 1216.01 438.478 1214.96 427.621C1213.9 416.764 1220.6 369.507 1231.41 362.865C1242.34 356.223 1292.04 326.974 1301.2 327.613C1310.37 328.251 1314.13 414.976 1224.71 443.203Z" fill="white"/>
<path fill-rule="evenodd" clip-rule="evenodd" d="M1230 368.101C1248.56 297.47 1263.72 281.632 1272.53 288.529C1280.53 294.787 1264.3 339.747 1259.61 363.12" fill="white"/>
<path fill-rule="evenodd" clip-rule="evenodd" d="M1251.98 297.138L1252.55 296.211C1260.06 284.212 1267.87 280.153 1274.59 285.42C1278.56 288.529 1278.99 294.951 1277.4 305.161L1277.17 306.601C1276.11 312.918 1274.37 320.294 1271.51 331.018L1266.84 348.326C1264.66 356.501 1263.93 359.567 1263.05 363.939C1262.64 366.006 1260.75 367.316 1258.85 366.863C1256.95 366.412 1255.74 364.37 1256.17 362.302L1256.5 360.673C1257.26 357.042 1258.03 353.857 1259.81 347.174L1264.51 329.737C1267.65 317.981 1269.45 310.316 1270.45 303.886L1270.6 302.915C1271.55 296.249 1271.25 292.248 1270.48 291.639C1267.77 289.523 1263.66 291.781 1257.87 301.346L1257.35 302.226C1249.92 314.9 1241.81 337.112 1233.39 369.154C1232.85 371.189 1230.9 372.368 1229.03 371.786C1227.16 371.204 1226.07 369.084 1226.61 367.049L1227.21 364.756C1235.8 332.512 1244.12 310.125 1251.98 297.138Z" fill="#2E186A"/>
<path fill-rule="evenodd" clip-rule="evenodd" d="M1311.89 352.774C1321.17 336.298 1336.58 337.193 1328.58 365.164C1320.71 392.496 1314.95 428.004 1300.27 444.098C1285.57 460.191 1280.29 467.344 1280.29 467.344C1280.29 467.344 1250.91 586.51 1234.23 685.624C1210.14 828.932 1164.55 856.52 1122.01 840.043C1079.47 823.694 1071.6 758.811 1129.65 633.002C1187.69 507.066 1218.36 433.752 1218.36 433.752" fill="white"/>
<path fill-rule="evenodd" clip-rule="evenodd" d="M1308.89 350.773C1314.15 341.421 1321.82 336.174 1327.97 338.72C1334.74 341.524 1336.06 351.519 1332.11 365.738L1331.25 368.75C1330.24 372.393 1329.19 376.387 1327.81 381.837L1325.25 391.919C1317.78 421.207 1312.25 436.21 1303.06 446.464L1300.76 449.006C1295.96 454.308 1291.96 458.888 1288.68 462.773L1287.38 464.324C1286.02 465.961 1284.91 467.338 1284.02 468.465L1283.5 469.139L1281.63 476.797L1279.97 483.752C1278.35 490.532 1276.6 497.959 1274.75 505.939C1268.04 534.824 1261.33 565.043 1255.07 595.117L1253.72 601.647C1250.81 615.74 1248.08 629.469 1245.56 642.743L1244.54 648.106C1242.35 659.661 1240.35 670.785 1238.52 681.434L1237.69 686.313C1226.2 754.681 1209.28 800.382 1187.6 825.381C1168.21 847.743 1145.33 853.143 1120.84 843.655C1097.3 834.609 1084.62 812.029 1084.59 777.574C1084.55 741.706 1098.09 693.246 1125.66 633.112L1131.08 621.337C1153.03 573.574 1172.41 530.42 1189.16 492.315L1195.68 477.444C1199.7 468.228 1203.35 459.803 1206.62 452.19L1211.77 440.158L1215.15 432.166C1215.96 430.239 1218.05 429.388 1219.82 430.264C1221.53 431.108 1222.32 433.25 1221.65 435.131L1221.21 436.199L1217.55 444.841L1212.52 456.584C1208.7 465.447 1204.39 475.383 1199.59 486.361L1194.66 497.595C1176.93 537.896 1156.28 583.773 1132.8 634.72C1079.48 750.279 1079.54 819.655 1123.19 836.434C1145.11 844.924 1165.05 840.222 1182.47 820.125C1202.83 796.643 1219.16 752.867 1230.42 686.939L1230.76 684.934C1233.08 671.142 1235.72 656.524 1238.65 641.185C1241.58 625.823 1244.78 609.858 1248.2 593.425C1254.13 564.959 1260.45 536.369 1266.8 508.899L1269.38 497.786C1270.58 492.656 1271.73 487.784 1272.83 483.196L1275.01 474.051L1276.89 466.351C1277.01 465.837 1277.24 465.357 1277.55 464.944L1278.03 464.305L1278.66 463.484C1279.6 462.306 1280.75 460.875 1282.15 459.187L1283.93 457.063C1287.63 452.678 1292.22 447.47 1297.76 441.399L1298.29 440.801C1305.82 432.202 1310.94 418.789 1317.52 393.519L1321.74 376.924C1322.91 372.363 1323.86 368.841 1324.79 365.514L1325.21 364.028C1328.39 352.914 1327.63 346.78 1325.46 345.882C1323.3 344.984 1318.61 348.185 1314.9 354.775C1313.88 356.58 1311.72 357.148 1310.06 356.043C1308.39 354.937 1307.87 352.578 1308.89 350.773Z" fill="#2E186A"/>
<path fill-rule="evenodd" clip-rule="evenodd" d="M1219.42 435.923C1210.96 429.664 1212.02 393.646 1202.5 377.937C1190.75 358.395 1179.23 338.086 1200.97 341.151C1219.66 343.707 1225.53 361.588 1229.88 367.974" fill="white"/>
<path fill-rule="evenodd" clip-rule="evenodd" d="M1185.76 351.989C1183.31 341.294 1189.05 335.606 1201.41 337.35C1211.79 338.769 1219.3 344.35 1225.39 353.255L1225.67 353.68C1227.89 357.06 1232.12 364.763 1232.68 365.646L1232.71 365.695C1233.87 367.396 1233.54 369.796 1231.98 371.054C1230.41 372.313 1228.2 371.954 1227.04 370.253L1226.93 370.067C1225.92 368.453 1221.53 360.456 1219.73 357.824C1214.7 350.469 1208.8 346.084 1200.52 344.951C1196.2 344.343 1193.69 344.775 1192.76 345.689C1192.22 346.23 1192.03 347.485 1192.53 349.819L1192.6 350.143C1193.82 355.494 1197.35 362.342 1205.05 375.171L1205.44 375.829C1209.04 381.77 1211.26 389.63 1213.52 402.201L1213.98 404.796L1215.36 412.902C1217.51 425.266 1219.18 430.963 1221.3 432.672L1221.4 432.756C1223.01 433.946 1223.43 436.329 1222.34 438.08C1221.24 439.829 1219.05 440.281 1217.44 439.091C1213.03 435.829 1211.13 429.8 1208.56 415.078L1206.97 405.763L1206.74 404.46C1204.65 392.636 1202.65 385.316 1199.74 380.353L1197.56 376.696C1190.46 364.731 1187.15 358.079 1185.76 351.989Z" fill="#2E186A"/>
<path fill-rule="evenodd" clip-rule="evenodd" d="M1301.09 382.662C1301.09 382.662 1317.66 338.981 1323.17 318.673C1329.29 296.575 1307.91 293.383 1297.56 325.186" fill="white"/>
<path fill-rule="evenodd" clip-rule="evenodd" d="M1316.3 297.893C1325.47 297.245 1329.94 306.947 1326.68 319.34L1326.55 319.759C1324.88 325.967 1322.11 334.591 1318.49 345.072L1317.84 346.94C1317.35 348.38 1316.84 349.847 1316.3 351.337C1314.02 357.853 1311.58 364.592 1309.14 371.256L1307.12 376.69L1305.05 382.261L1304.34 384.123C1303.61 386.08 1301.55 387.011 1299.74 386.204C1298.01 385.426 1297.15 383.317 1297.76 381.412L1300.59 373.821C1300.9 372.989 1301.22 372.13 1301.55 371.25C1303.98 364.647 1306.43 357.926 1308.74 351.39L1310.24 347.13L1311.25 344.237C1315.01 333.383 1317.91 324.446 1319.66 318.106L1319.81 317.569C1322.06 309.429 1320.19 305.298 1316.76 305.541C1311.7 305.899 1305.15 313.339 1300.89 326.463C1300.24 328.459 1298.22 329.504 1296.39 328.799C1294.55 328.094 1293.58 325.904 1294.24 323.909C1299.35 308.202 1307.88 298.488 1316.3 297.893Z" fill="#2E186A"/>
<path fill-rule="evenodd" clip-rule="evenodd" d="M1281.58 371.166C1281.58 371.166 1314.13 291.083 1299.56 283.932C1286.28 277.417 1276.18 306.666 1259.5 363.12" fill="white"/>
<path fill-rule="evenodd" clip-rule="evenodd" d="M1278.15 297.127C1285.22 282.271 1292.4 276.217 1301.01 280.439C1309.86 284.783 1308.18 301.369 1300.27 328.455C1298.92 333.055 1297.41 337.857 1295.76 342.805C1293.63 349.194 1291.37 355.545 1289.09 361.634L1288.24 363.905C1287.43 366.012 1286.69 367.949 1286.01 369.69L1284.8 372.716C1284.02 374.651 1281.93 375.526 1280.15 374.672C1278.38 373.817 1277.57 371.554 1278.35 369.618L1279.27 367.315L1280.04 365.362C1280.56 364.007 1281.12 362.545 1281.72 360.987C1284.24 354.31 1286.78 347.27 1289.14 340.194C1290.75 335.338 1292.23 330.632 1293.55 326.135L1294.12 324.137C1300.06 303.258 1301.38 289.033 1298.1 287.424C1294.03 285.422 1289.68 289.25 1283.96 301.634L1283.3 303.079C1278.02 314.859 1272.38 332.056 1262.85 364.293C1262.25 366.307 1260.27 367.416 1258.42 366.768C1256.56 366.122 1255.53 363.963 1256.13 361.949L1258.18 355.051C1266.89 325.861 1272.24 309.98 1277.48 298.562L1278.15 297.127Z" fill="#2E186A"/>
<path fill-rule="evenodd" clip-rule="evenodd" d="M749.641 429.41L754.224 519.711C754.224 519.711 746.469 568.501 808.745 559.433C870.788 550.492 863.15 510.515 863.15 510.515L843.996 398.372L749.641 429.41Z" fill="white"/>
<path fill-rule="evenodd" clip-rule="evenodd" d="M842.975 394.705L748.621 425.742C747.064 426.253 746.032 427.856 746.121 429.62L750.684 519.524L750.635 519.933C750.611 520.157 750.586 520.411 750.561 520.69C749.982 527.178 750.654 534.575 753.584 541.697C760.741 559.092 778.572 567.693 809.213 563.231C834.223 559.626 850.49 550.812 859.412 538.187C865.897 529.011 867.658 519.364 866.801 511.183L866.742 510.664C866.702 510.345 866.663 510.082 866.627 509.878L847.462 397.673C847.079 395.428 844.986 394.043 842.975 394.705ZM753.312 432.204L841.249 403.279L859.717 511.411C859.74 511.567 859.768 511.773 859.796 512.05C860.463 518.415 859.058 526.109 853.822 533.519C846.144 544.383 831.574 552.278 808.282 555.634C780.511 559.679 765.783 552.574 760.021 538.57C757.664 532.843 757.108 526.709 757.578 521.429L757.63 520.89C757.659 520.636 757.683 520.458 757.698 520.363L757.732 520.077C757.75 519.885 757.753 519.692 757.744 519.499L753.312 432.204Z" fill="#2E186A"/>
<path fill-rule="evenodd" clip-rule="evenodd" d="M867.85 284.443C867.85 284.443 916.026 264.772 917.907 319.311C919.786 373.849 867.85 359.672 867.85 359.672" fill="white"/>
<path fill-rule="evenodd" clip-rule="evenodd" d="M872.516 278.986C879.476 277.198 886.656 276.556 893.473 277.764C910.078 280.706 920.558 293.91 921.429 319.168C922.329 345.284 911.633 359.579 893.657 363.855C886.339 365.596 878.634 365.494 871.349 364.29L870.211 364.092C868.776 363.829 867.682 363.577 866.991 363.388C865.103 362.873 863.957 360.791 864.431 358.738C864.888 356.759 866.686 355.53 868.506 355.907L869.271 356.094L869.636 356.179C870.444 356.36 871.374 356.542 872.409 356.713C878.911 357.788 885.799 357.879 892.149 356.368C906.859 352.869 915.154 341.784 914.384 319.454L914.329 318.156C913.311 297.401 905.331 287.629 892.339 285.328C886.569 284.306 880.27 284.869 874.137 286.444C872.949 286.749 871.853 287.072 870.867 287.396L870.384 287.558C870.024 287.682 869.728 287.787 869.501 287.871L869.089 288.029C867.267 288.773 865.235 287.771 864.55 285.789C863.866 283.808 864.788 281.6 866.61 280.855L867.065 280.675C868.288 280.206 870.153 279.593 872.516 278.986Z" fill="#2E186A"/>
<path fill-rule="evenodd" clip-rule="evenodd" d="M777.489 456.87C725.317 456.87 683.017 410.889 683.017 354.18V264.517C683.017 228.244 710.16 198.739 743.531 198.739H826.253C851.517 198.739 872.08 221.091 872.08 248.552V354.051C872.08 410.761 829.779 456.87 777.489 456.87Z" fill="white"/>
<path fill-rule="evenodd" clip-rule="evenodd" d="M826.253 194.907H743.531C708.213 194.907 679.491 226.128 679.491 264.517V354.18C679.491 413.005 723.371 460.702 777.489 460.702L779.084 460.688C832.622 459.743 875.605 412.263 875.605 354.051V248.552C875.605 218.975 853.463 194.907 826.253 194.907ZM743.531 202.571H826.253C849.57 202.571 868.555 223.207 868.555 248.552V354.051C868.555 408.079 828.66 452.15 778.999 453.025L777.461 453.039C727.265 453.038 686.542 408.774 686.542 354.18V264.517C686.542 230.359 712.106 202.571 743.531 202.571Z" fill="#2E186A"/>
<path fill-rule="evenodd" clip-rule="evenodd" d="M894.053 402.715C893.935 367.846 889.471 342.428 888.296 336.043C888.296 335.659 888.412 335.149 888.412 334.766C888.412 326.719 882.42 320.205 875.017 320.205V334.766L875.37 349.326C878.19 349.199 880.775 348.177 882.891 346.516C887.237 375.893 895.816 463.512 859.625 537.974C853.045 551.642 846.816 564.287 840.707 576.42C806.631 645.518 784.069 691.244 784.657 731.988C784.657 734.031 786.301 735.82 788.182 735.82C790.18 735.82 791.708 734.031 791.708 731.988C791.237 693.159 813.446 648.201 846.934 580.123C852.927 567.862 859.154 555.346 865.852 541.551C889.471 492.889 894.288 439.244 894.053 402.715Z" fill="#F88282"/>
<path fill-rule="evenodd" clip-rule="evenodd" d="M673.851 350.986C675.496 352.008 677.259 352.647 679.256 352.774V323.781C673.029 324.42 668.094 329.528 667.271 336.17C666.918 336.809 666.684 337.576 666.684 338.342C666.684 344.217 666.684 481.777 704.285 543.85C742.709 607.457 754.576 643.731 757.279 705.293C757.396 707.338 758.924 708.997 760.803 708.997H760.921C762.919 708.87 764.329 707.082 764.329 705.039C761.627 641.687 749.524 604.648 710.16 539.635C680.079 490.078 674.79 386.877 673.851 350.986Z" fill="#F88282"/>
<path fill-rule="evenodd" clip-rule="evenodd" d="M748.524 288.658C750.401 288.623 751.96 290.19 752.099 292.199L752.109 292.424L753.375 373.508L753.429 373.531C753.685 373.622 753.968 373.601 754.356 373.445L754.529 373.371C756.341 372.528 758.73 369.678 761.47 364.222C762.403 362.365 764.545 361.68 766.254 362.696C767.962 363.71 768.591 366.038 767.658 367.895C761.217 380.714 754.288 383.936 748.752 379.389C747.93 378.714 747.351 378.02 746.982 377.442C746.633 376.896 746.421 376.263 746.366 375.602L746.351 375.319L745.059 292.554C745.026 290.438 746.577 288.693 748.524 288.658Z" fill="#2E186A"/>
<path fill-rule="evenodd" clip-rule="evenodd" d="M785.664 385.586C787.631 384.188 790.282 385.232 790.967 387.677L791.049 387.993C791.135 388.346 791.231 388.812 791.323 389.377C792.048 393.868 791.654 398.836 789.292 403.592C785.356 411.518 776.849 416.684 763.147 418.151C761.209 418.359 759.484 416.819 759.294 414.713C759.103 412.608 760.519 410.731 762.455 410.524C773.993 409.289 780.376 405.413 783.088 399.952C783.757 398.605 784.18 397.209 784.402 395.815L784.478 395.273L784.37 395.338C769.048 404.308 753.74 404.906 746.155 395.681L745.901 395.367C744.638 393.756 744.814 391.339 746.296 389.965C747.777 388.592 750.002 388.783 751.265 390.394C756.72 397.343 771.155 395.909 785.664 385.586Z" fill="#2E186A"/>
<path fill-rule="evenodd" clip-rule="evenodd" d="M780.624 258.763C788.316 252.405 797.448 251.726 807.298 260.241C808.821 261.559 809.073 263.97 807.862 265.625C806.649 267.282 804.432 267.556 802.909 266.239C795.781 260.076 790.178 260.493 784.891 264.863C784.177 265.454 783.54 266.059 782.85 266.777L781.556 268.168C781.375 268.358 781.221 268.51 781.055 268.656C780.601 269.056 780.204 269.326 779.52 269.512C777.631 270.024 775.716 268.777 775.244 266.723C774.89 265.184 775.448 263.629 776.546 262.73L776.699 262.611L777.47 261.777C778.526 260.641 779.485 259.704 780.624 258.763Z" fill="#2E186A"/>
<path fill-rule="evenodd" clip-rule="evenodd" d="M805.103 326.719C808.348 326.719 810.977 322.316 810.977 316.885C810.977 311.452 808.348 307.05 805.103 307.05C801.858 307.05 799.227 311.452 799.227 316.885C799.227 322.316 801.858 326.719 805.103 326.719Z" fill="#2E186A"/>
<path fill-rule="evenodd" clip-rule="evenodd" d="M719.678 329.146C722.922 329.146 725.552 324.743 725.552 319.311C725.552 313.879 722.922 309.475 719.678 309.475C716.433 309.475 713.802 313.879 713.802 319.311C713.802 324.743 716.433 329.146 719.678 329.146Z" fill="#2E186A"/>
<path fill-rule="evenodd" clip-rule="evenodd" d="M703.291 257.554C712.09 249.924 721.74 249.565 730.214 261.396C731.411 263.067 731.135 265.474 729.598 266.775C728.063 268.075 725.848 267.775 724.652 266.105C718.931 258.118 713.724 258.312 707.688 263.545C706.871 264.253 706.134 264.976 705.319 265.843L703.934 267.347C703.746 267.543 703.591 267.701 703.429 267.846C702.948 268.282 702.572 268.549 701.849 268.746C699.961 269.258 698.047 268.011 697.575 265.957C697.22 264.417 697.778 262.862 698.875 261.964L699.011 261.859L699.919 260.87C701.075 259.614 702.1 258.587 703.291 257.554Z" fill="#2E186A"/>
<path fill-rule="evenodd" clip-rule="evenodd" d="M801.108 176.388C778.195 176.77 760.805 177.92 750.464 180.092C666.331 200.911 679.961 268.605 679.961 268.605C679.961 268.605 721.088 277.162 754.576 223.262C754.576 223.262 800.52 264.006 868.555 280.483C869.613 280.228 870.906 279.844 872.08 279.46V283.164C876.076 282.016 882.538 280.738 889.236 281.249C888.531 254.555 884.066 220.835 863.855 199.122C849.519 183.668 828.369 176.004 801.108 176.388Z" fill="#2E186A"/>
<path fill-rule="evenodd" clip-rule="evenodd" d="M752.329 171.826C765.734 169.802 786.838 168.472 805.022 168.596C841.34 169.014 865.611 183.56 879.996 209.215C885.659 219.314 889.608 230.808 892.267 243.704C894.231 253.224 895.285 261.947 896.272 274.275C896.441 276.383 895.006 278.242 893.067 278.425C891.127 278.609 889.418 277.049 889.249 274.94L889.06 272.648C886.869 246.914 883.11 229.493 873.975 213.202C860.876 189.84 838.867 176.649 804.964 176.259L802.892 176.252C785.531 176.239 765.846 177.523 753.299 179.417C751.37 179.708 749.59 178.244 749.323 176.148C749.054 174.052 750.401 172.117 752.329 171.826Z" fill="white"/>
<path fill-rule="evenodd" clip-rule="evenodd" d="M1021.9 120.827C992.874 30.6539 910.621 -20.0527 838.122 7.53573C778.547 30.1429 744.119 98.7309 749.758 172.428C760.686 170.384 777.842 169.107 801.108 168.724C830.366 168.341 853.161 176.643 868.907 193.63C891.234 217.642 895.816 254.044 896.404 282.398C907.214 285.591 917.201 295.171 918.024 319.311C918.142 321.738 916.144 340.513 916.614 340.385C916.614 346.389 917.789 353.924 921.902 361.332C930.009 375.51 946.46 384.323 970.901 387.388C971.018 387.388 971.136 387.388 971.371 387.388C973.133 387.388 974.661 385.983 974.896 384.068C975.131 382.023 973.721 380.108 971.84 379.853C949.751 377.042 934.944 369.507 928.011 357.373C925.191 352.519 924.134 347.538 923.782 343.196C929.774 350.859 940.233 359.161 956.8 359.161C960.795 359.161 965.143 358.65 969.843 357.628C971.723 357.245 973.015 355.201 972.546 353.158C972.193 351.115 970.313 349.709 968.433 350.22C947.047 355.074 935.179 346.261 928.952 338.342C933.769 337.192 938.47 335.788 943.169 334C1015.55 306.283 1050.8 210.873 1021.9 120.827Z" fill="#2E186A"/>
<path fill-rule="evenodd" clip-rule="evenodd" d="M810.155 268.732C784.457 268.732 763.625 291.377 763.625 319.311C763.625 347.245 784.457 369.889 810.155 369.889C835.855 369.889 856.687 347.245 856.687 319.311C856.687 291.377 835.855 268.732 810.155 268.732ZM810.155 276.395C831.96 276.395 849.637 295.609 849.637 319.311C849.637 343.013 831.96 362.227 810.155 362.227C788.351 362.227 770.674 343.013 770.674 319.311C770.674 295.609 788.351 276.395 810.155 276.395Z" fill="#2E186A"/>
<path fill-rule="evenodd" clip-rule="evenodd" d="M766.21 314.329C768.156 314.329 769.734 316.045 769.734 318.162C769.734 320.202 768.267 321.87 766.416 321.986L766.21 321.993H738.243C736.296 321.993 734.719 320.278 734.719 318.162C734.719 316.121 736.186 314.452 738.037 314.336L738.243 314.329H766.21Z" fill="#2E186A"/>
<path fill-rule="evenodd" clip-rule="evenodd" d="M870.345 278.425C872.04 277.383 874.191 278.033 875.149 279.874C876.071 281.649 875.551 283.881 873.999 284.974L873.815 285.096L849.492 300.039C847.796 301.081 845.646 300.431 844.688 298.589C843.765 296.815 844.286 294.581 845.838 293.488L846.022 293.368L870.345 278.425Z" fill="#2E186A"/>
<path fill-rule="evenodd" clip-rule="evenodd" d="M693.827 268.732C668.128 268.732 647.295 291.377 647.295 319.311C647.295 347.245 668.128 369.889 693.827 369.889C719.525 369.889 740.358 347.245 740.358 319.311C740.358 291.377 719.525 268.732 693.827 268.732ZM693.827 276.395C715.632 276.395 733.307 295.609 733.307 319.311C733.307 343.013 715.632 362.227 693.827 362.227C672.022 362.227 654.346 343.013 654.346 319.311C654.346 295.609 672.022 276.395 693.827 276.395Z" fill="#2E186A"/>
<path fill-rule="evenodd" clip-rule="evenodd" d="M989.584 852.943H965.143L953.158 659.697C952.335 646.158 941.525 635.174 929.07 635.174H588.426C575.97 635.174 566.452 646.158 567.392 659.697L580.671 873.635C581.493 887.173 592.303 898.158 604.759 898.158L989.466 897.647C996.516 897.647 1002.16 891.389 1002.16 883.852V866.866C1002.27 859.201 996.634 852.943 989.584 852.943Z" fill="#F88282"/>
<path fill-rule="evenodd" clip-rule="evenodd" d="M782.777 763.026C777.96 757.406 771.496 753.83 764.681 752.424C765.739 750.764 766.444 748.72 766.679 746.549C767.267 739.652 762.684 733.265 756.573 732.243C756.457 732.243 756.339 732.243 756.221 732.243C754.929 727.007 752.462 718.322 749.64 714.618C748.583 713.212 746.586 712.701 745.176 713.596C743.884 714.49 743.648 716.278 744.706 717.684C746.586 720.111 748.818 727.646 750.228 733.393C747.055 735.181 744.823 738.63 744.47 742.973C744.119 746.931 745.529 750.637 747.761 753.318C745.645 754.084 743.648 754.979 741.768 756.256C729.548 764.558 728.02 780.907 738.361 793.041C748.701 805.047 767.149 808.113 779.37 799.81C791.708 791.507 793.234 775.031 782.777 763.026Z" fill="white"/>
<path fill-rule="evenodd" clip-rule="evenodd" d="M777.607 713.98C777.607 713.98 759.981 710.147 757.632 726.112C757.749 726.112 771.615 731.477 777.607 713.98Z" fill="white"/>
<path fill-rule="evenodd" clip-rule="evenodd" d="M1437.16 898.158C1439.1 898.158 1440.68 899.873 1440.68 901.989C1440.68 904.03 1439.21 905.698 1437.36 905.815L1437.16 905.82H4.66671C2.71985 905.82 1.1416 904.105 1.1416 901.989C1.1416 899.949 2.60913 898.281 4.45959 898.164L4.66671 898.158H1437.16Z" fill="#2E186A"/>
</svg>
