<svg width="1419" height="758" viewBox="0 0 1419 758" fill="none" xmlns="http://www.w3.org/2000/svg">
<path fill-rule="evenodd" clip-rule="evenodd" d="M301.423 3.95522C281.16 9.70267 264.03 21.2791 249.828 36.9223C242.557 44.9313 236.519 53.4989 231.64 62.0698L231.136 62.9647C229.809 65.3346 228.652 67.5657 227.66 69.6229L227.405 70.1571L227.085 70.0432C200.313 60.5722 176.556 60.0269 155.779 67.1776C138.011 73.2928 123.228 84.7195 111.171 99.8689C104.708 107.991 99.4349 116.675 95.2541 125.361L94.8216 126.267C93.6878 128.667 92.7064 130.927 91.8718 133.01L91.4448 134.09L91.4256 134.088C61.149 130.883 36.6398 135.963 17.715 147.869C-14.8642 168.25 0.480627 216.481 39.4522 216.481H688.995C691.364 216.481 693.205 214.517 692.933 212.279L692.857 211.725C692.754 211.018 692.583 210.014 692.326 208.745C691.781 206.041 691.026 203.04 690.029 199.812C687.184 190.603 682.956 181.393 677.061 172.777C668.209 159.839 656.377 149.416 641.181 142.476L640.354 142.103C623.212 134.477 602.493 131.559 577.948 134.057L577.557 134.098L577.432 133.779C576.433 131.23 575.204 128.397 573.737 125.353C569.549 116.663 564.271 107.974 557.805 99.8477C545.735 84.6806 530.945 73.243 513.179 67.1272L512.417 66.8689C492.085 60.0776 468.931 60.635 442.923 69.6835L441.585 70.1558L441.692 70.3772C440.497 67.8606 439.043 65.0651 437.323 62.0598C432.418 53.4878 426.357 44.919 419.062 36.9091C411.893 29.0359 403.897 22.1246 395.039 16.4494C394.904 16.3633 394.764 16.2853 394.62 16.2156L386.562 12.3202L386.348 12.2248C354.678 -0.897933 326.377 -3.12293 301.423 3.95522ZM383.081 19.095L390.802 22.827L390.61 22.7032C398.86 27.9871 406.34 34.4532 413.072 41.8453C419.967 49.4165 425.715 57.5417 430.361 65.6637C431.985 68.5014 433.353 71.1314 434.471 73.4838L435.008 74.6354C435.172 74.9946 435.322 75.329 435.456 75.6373L435.756 76.3401C436.548 78.3085 438.885 79.2759 440.939 78.4869C467.542 68.273 490.591 67.3693 510.482 74.2167C526.668 79.7887 540.276 90.3122 551.485 104.398C557.576 112.054 562.57 120.275 566.532 128.495C567.916 131.368 569.073 134.032 570.008 136.415L570.455 137.581C570.546 137.824 570.631 138.056 570.712 138.276L571.074 139.31C571.643 141.06 573.451 142.168 575.361 141.936C600.42 138.896 621.058 141.648 637.75 149.272C651.566 155.583 662.323 165.058 670.419 176.89C675.861 184.846 679.785 193.391 682.425 201.938L682.695 202.828C683.222 204.593 683.667 206.277 684.039 207.862L684.283 208.941H39.4522C8.33184 208.941 -3.92126 170.428 22.0789 154.163C40.0299 142.87 63.6909 138.235 93.6318 141.935C95.4661 142.162 97.2092 141.152 97.852 139.523L98.1756 138.595L98.4144 137.936C98.5423 137.589 98.6827 137.216 98.8359 136.819L98.9934 136.414C99.9257 134.033 101.078 131.371 102.461 128.5C106.415 120.285 111.403 112.07 117.491 104.419C128.686 90.3515 142.288 79.8389 158.476 74.2673C178.37 67.4206 201.434 68.3091 228.069 78.4891C230.127 79.2756 232.462 78.3028 233.251 76.3312L233.548 75.6291L233.834 74.9784C234.039 74.5218 234.27 74.0203 234.527 73.4765C235.636 71.125 236.997 68.4959 238.611 65.6593C243.232 57.5404 248.955 49.4182 255.827 41.8501C269.104 27.2249 285.005 16.4799 303.688 11.1804C326.525 4.70273 352.574 6.65677 382.162 18.7171L383.081 19.095Z" fill="#2E186A"/>
<path fill-rule="evenodd" clip-rule="evenodd" d="M698.893 560.162C700.638 558.906 703.123 559.235 704.443 560.898C705.762 562.558 705.416 564.922 703.671 566.178C697.198 570.829 691.246 576.231 685.804 582.236C678.983 589.764 673.297 597.842 668.704 605.918C667.259 608.457 666.02 610.829 664.981 612.983L664.642 613.693C664.322 614.369 664.045 614.979 663.806 615.519L663.478 616.277C663.43 616.394 663.394 616.479 663.372 616.532C662.584 618.504 660.249 619.476 658.192 618.69C631.557 608.51 608.492 607.621 588.599 614.468C572.41 620.039 558.809 630.552 547.615 644.62C541.525 652.27 536.538 660.486 532.584 668.701C531.34 671.285 530.281 673.7 529.403 675.892L529.115 676.615C528.954 677.027 528.806 677.418 528.67 677.781L528.103 679.356L528.053 679.509C527.483 681.262 525.669 682.372 523.754 682.136C493.814 678.436 470.153 683.071 452.209 694.36C426.554 710.481 438.254 748.374 468.648 749.131L469.575 749.142H1114.27L1114.21 748.856C1113.8 747.046 1113.29 745.1 1112.68 743.041L1112.41 742.153C1109.76 733.614 1105.83 725.075 1100.38 717.128C1083.88 693.037 1057.28 679.314 1017.73 681.158C1015.54 681.259 1013.68 679.656 1013.57 677.577C1013.47 675.497 1015.15 673.729 1017.34 673.628C1059.79 671.649 1089.02 686.732 1107.02 713.012C1112.92 721.619 1117.15 730.82 1120.01 740.02C1121.01 743.243 1121.76 746.243 1122.31 748.946L1122.52 750.014C1122.73 751.119 1122.86 751.951 1122.92 752.476C1123.19 754.641 1121.48 756.55 1119.22 756.675L1118.99 756.682H469.575C430.641 756.682 415.365 708.476 447.837 688.07C466.537 676.305 490.69 671.206 520.47 674.177L521.568 674.291L521.689 673.983C522.587 671.691 523.668 669.168 524.944 666.468L525.376 665.561C529.558 656.876 534.83 648.193 541.295 640.07C553.351 624.92 568.135 613.494 585.902 607.378C606.416 600.318 629.834 600.76 656.192 609.888L657.528 610.357L657.775 609.843C658.761 607.797 659.912 605.578 661.23 603.22L661.731 602.331C666.582 593.803 672.581 585.281 679.802 577.313C685.595 570.919 691.952 565.15 698.893 560.162Z" fill="#2E186A"/>
<path fill-rule="evenodd" clip-rule="evenodd" d="M1026.4 223.353C1051.08 216.353 1079.03 218.452 1110.28 231.193L1111.32 231.622L1111.53 231.719L1119.59 235.613C1119.74 235.684 1119.88 235.761 1120.01 235.847C1128.87 241.523 1136.87 248.433 1144.04 256.307C1151.33 264.317 1157.39 272.885 1162.3 281.457C1163.84 284.162 1165.18 286.698 1166.3 289.012L1166.56 289.553L1166.88 289.437C1193.3 280.049 1216.79 279.387 1237.39 286.267L1238.15 286.524C1255.92 292.641 1270.71 304.079 1282.78 319.245C1289.25 327.373 1294.52 336.061 1298.71 344.75C1300.03 347.49 1301.16 350.058 1302.1 352.403L1302.53 353.495L1302.92 353.455C1327.47 350.957 1348.18 353.875 1365.33 361.5L1366.16 361.873C1381.35 368.814 1393.18 379.236 1402.04 392.175C1407.93 400.791 1412.16 410.001 1415 419.21C1416 422.437 1416.75 425.439 1417.3 428.143L1417.51 429.213C1417.72 430.319 1417.84 431.151 1417.91 431.676C1418.17 433.841 1416.46 435.747 1414.2 435.873L1413.97 435.879H1026.12C1023.93 435.879 1022.16 434.191 1022.16 432.108C1022.16 430.101 1023.81 428.46 1025.89 428.346L1026.12 428.339L1409.26 428.338L1409.19 428.045C1408.79 426.234 1408.28 424.284 1407.67 422.225L1407.4 421.336C1404.76 412.789 1400.84 404.244 1395.39 396.288C1387.3 384.456 1376.54 374.981 1362.72 368.669C1346.03 361.046 1325.39 358.293 1300.34 361.333C1298.5 361.557 1296.77 360.548 1296.13 358.923L1295.8 357.995C1295.58 357.37 1295.3 356.639 1294.98 355.812C1294.05 353.429 1292.89 350.766 1291.51 347.892C1287.54 339.673 1282.55 331.452 1276.46 323.796C1265.25 309.709 1251.64 299.187 1235.45 293.614C1215.57 286.767 1192.52 287.671 1165.91 297.885C1163.93 298.646 1161.69 297.774 1160.82 295.945L1160.43 295.036L1160.14 294.384C1159.93 293.928 1159.7 293.425 1159.44 292.882C1158.33 290.529 1156.96 287.899 1155.34 285.061C1150.69 276.94 1144.94 268.814 1138.05 261.244C1131.61 254.173 1124.48 247.948 1116.66 242.796L1115.78 242.225L1108.06 238.492L1107.14 238.115C1077.89 226.193 1052.1 224.147 1029.45 230.358L1028.66 230.578C1009.98 235.878 994.078 246.623 980.8 261.248C973.928 268.816 968.205 276.938 963.585 285.056C961.969 287.894 960.611 290.523 959.499 292.874L959.135 293.658C959.019 293.908 958.911 294.148 958.808 294.376L958.25 295.665C958.24 295.689 958.232 295.712 958.225 295.729C957.437 297.7 955.1 298.673 953.043 297.886C926.409 287.706 903.343 286.818 883.45 293.666C867.261 299.237 853.66 309.749 842.466 323.817C836.376 331.468 831.388 339.684 827.435 347.898C826.191 350.482 825.132 352.896 824.254 355.089L823.967 355.812C823.805 356.225 823.657 356.614 823.521 356.978L822.954 358.553L822.904 358.704C822.334 360.46 820.52 361.569 818.605 361.333C788.665 357.633 765.004 362.266 747.061 373.556C745.236 374.704 742.778 374.227 741.569 372.491C740.362 370.755 740.863 368.415 742.688 367.267C761.388 355.502 785.539 350.402 815.32 353.374L816.419 353.488L816.539 353.18C817.438 350.887 818.519 348.365 819.795 345.666L820.227 344.759C824.409 336.074 829.681 327.389 836.146 319.266C848.2 304.117 862.986 292.691 880.753 286.576C901.267 279.514 924.685 279.958 951.043 289.086L952.379 289.555L952.635 289.021C953.627 286.964 954.784 284.732 956.11 282.363L956.614 281.467C961.493 272.896 967.529 264.329 974.801 256.32C989.003 240.676 1006.13 229.101 1026.4 223.353Z" fill="#2E186A"/>
<path fill-rule="evenodd" clip-rule="evenodd" d="M886.355 375.689C893.489 375.689 900.623 376.066 907.492 376.819V153.401C907.492 141.087 896.924 131.034 883.978 131.034H267.724C254.778 131.034 244.209 141.087 244.209 153.401V501.974C244.209 514.289 254.778 524.342 267.724 524.342H703.526C717.397 440.151 793.885 375.689 886.355 375.689Z" fill="#F88282"/>
<path fill-rule="evenodd" clip-rule="evenodd" d="M888.287 139.49C890.017 138.214 892.507 138.514 893.847 140.159C895.137 141.742 894.895 143.992 893.336 145.297L893.143 145.448L590.511 368.607C581.95 374.974 570.396 375.074 561.752 368.918L561.335 368.616L258.69 145.448C256.962 144.173 256.646 141.805 257.987 140.159C259.277 138.577 261.627 138.239 263.344 139.35L263.547 139.49L566.204 362.666C571.919 366.917 579.488 367.002 585.289 362.912L585.642 362.657L888.287 139.49Z" fill="#2E186A"/>
<path fill-rule="evenodd" clip-rule="evenodd" d="M438.674 272.711C440.245 271.259 442.753 271.293 444.28 272.787C445.744 274.219 445.769 276.475 444.381 277.938L444.201 278.117L254.105 453.912C252.537 455.362 250.028 455.33 248.501 453.836C247.037 452.404 247.012 450.146 248.399 448.684L248.581 448.506L438.674 272.711Z" fill="#2E186A"/>
<path fill-rule="evenodd" clip-rule="evenodd" d="M709.142 272.784C710.608 271.353 712.98 271.266 714.554 272.546L714.747 272.713L831.26 380.652C832.829 382.106 832.862 384.492 831.334 385.984C829.868 387.415 827.497 387.502 825.924 386.222L825.73 386.055L709.216 278.115C707.649 276.662 707.615 274.275 709.142 272.784Z" fill="#2E186A"/>
<path fill-rule="evenodd" clip-rule="evenodd" d="M886.355 371.919C781.953 371.919 697.317 452.425 697.317 551.734C697.317 651.043 781.953 731.55 886.355 731.55C990.758 731.55 1075.39 651.043 1075.39 551.734C1075.39 452.425 990.758 371.919 886.355 371.919ZM886.355 379.459C986.38 379.459 1067.47 456.589 1067.47 551.734C1067.47 646.881 986.38 724.01 886.355 724.01C786.331 724.01 705.245 646.881 705.245 551.734C705.245 456.589 786.331 379.459 886.355 379.459Z" fill="#2E186A"/>
<path fill-rule="evenodd" clip-rule="evenodd" d="M1032.06 383.856C1024.4 379.333 1014.23 381.595 1009.47 388.883L969.051 450.707C945.009 432.235 914.493 421.177 881.335 421.177C804.188 421.177 741.441 480.864 741.441 554.247C741.441 627.632 804.188 687.318 881.335 687.318C958.482 687.318 1021.23 627.632 1021.23 554.247C1021.23 523.964 1010.53 496.069 992.565 473.577L1037.21 405.219C1042.1 397.931 1039.73 388.38 1032.06 383.856ZM1010.93 554.247C1010.93 622.228 952.803 677.517 881.335 677.517C809.869 677.517 751.744 622.228 751.744 554.247C751.744 486.267 809.869 430.978 881.335 430.978C912.511 430.978 941.179 441.534 963.503 459L890.318 570.96L847.915 517.305C842.498 510.393 832.195 509.012 824.928 514.163C817.663 519.315 816.209 529.116 821.626 536.028L878.43 607.903C881.601 611.799 886.355 614.186 891.507 614.186C891.773 614.186 892.037 614.186 892.168 614.186C897.585 613.935 902.472 611.171 905.379 606.898L986.62 482.748C1001.95 502.854 1010.93 527.608 1010.93 554.247Z" fill="#2E186A"/>
</svg>
